<svg width="16" height="16" viewBox="0 0 16 16" fill="none" xmlns="http://www.w3.org/2000/svg">
<path d="M8 0C3.58182 0 0 3.58182 0 8C0 12.4182 3.58182 16 8 16C12.4182 16 16 12.4182 16 8C16 3.58182 12.4182 0 8 0ZM12.4891 5.49091C11.6073 6.37455 11.0127 6.88909 9.35636 8.88727C8.4 10.04 7.49636 11.2782 7.48909 11.2873L7.09273 11.7818C7.00909 11.8927 6.84727 11.9055 6.74545 11.8109L3.56182 8.85273C3.23818 8.55273 3.22 8.04545 3.52 7.72182C3.82 7.39818 4.32727 7.38 4.65091 7.68L6.55818 9.45273C6.65818 9.54545 6.81454 9.53454 6.90182 9.42909C7.19636 9.06364 7.6 8.62 8.03636 8.18182C9.67636 6.52909 10.6836 5.64182 11.2218 5.24909C11.8764 4.77273 12.6273 4.36545 12.8091 4.59091C13.0909 4.94364 12.9182 5.06 12.4891 5.49091Z" fill="#E6514A"/>
</svg>
