<svg width="16" height="12" viewBox="0 0 16 12" fill="none" xmlns="http://www.w3.org/2000/svg">
<path d="M15.1831 2.25079C15.0103 1.60818 14.5036 1.10162 13.8611 0.928589C12.6873 0.607422 7.992 0.607422 7.992 0.607422C7.992 0.607422 3.29691 0.607422 2.12311 0.916412C1.49295 1.08926 0.973938 1.60828 0.801086 2.25079C0.492188 3.4245 0.492188 5.85861 0.492188 5.85861C0.492188 5.85861 0.492188 8.30499 0.801086 9.46643C0.974121 10.1089 1.48059 10.6155 2.1232 10.7885C3.30926 11.1098 7.99219 11.1098 7.99219 11.1098C7.99219 11.1098 12.6873 11.1098 13.8611 10.8008C14.5037 10.6279 15.0103 10.1213 15.1833 9.47879C15.4921 8.30499 15.4921 5.87097 15.4921 5.87097C15.4921 5.87097 15.5045 3.4245 15.1831 2.25079ZM6.49713 8.10733V3.60989L10.4015 5.85861L6.49713 8.10733Z" fill="white"/>
</svg>
