<svg width="16" height="16" viewBox="0 0 16 16" fill="none" xmlns="http://www.w3.org/2000/svg">
<rect width="16" height="16" rx="8" fill="#E6514A"/>
<path d="M12.0217 10.4501L10.7212 9.14653C10.4622 8.88795 10.0332 8.89581 9.76519 9.16457L9.10999 9.82111C9.06859 9.79824 9.02575 9.77436 8.9807 9.74902C8.56695 9.51924 8.00066 9.20431 7.40476 8.60663C6.8071 8.00768 6.49259 7.43923 6.26263 7.02428C6.23837 6.98032 6.21512 6.93793 6.19216 6.89768L6.63189 6.4576L6.84808 6.24066C7.11655 5.97151 7.12396 5.54169 6.86553 5.28236L5.56503 3.97862C5.3066 3.71965 4.87744 3.72751 4.60897 3.99666L4.24244 4.36612L4.25246 4.37609C4.12956 4.53327 4.02686 4.71454 3.95043 4.91003C3.87998 5.09611 3.83612 5.27368 3.81606 5.45161C3.64434 6.87845 4.29489 8.18248 6.0604 9.95202C8.50088 12.3979 10.4676 12.2131 10.5524 12.2041C10.7372 12.1819 10.9143 12.1377 11.0943 12.0676C11.2876 11.9919 11.4684 11.8891 11.6251 11.7662L11.6331 11.7734L12.0044 11.4089C12.2723 11.1398 12.2801 10.7099 12.0217 10.4501Z" fill="white"/>
</svg>
