<svg width="20" height="20" viewBox="0 0 20 20" fill="none" xmlns="http://www.w3.org/2000/svg">
<path d="M11.6958 12.988L10.5573 14.1806C10.376 14.3689 10.0946 14.4014 9.87859 14.2587L9.87169 14.2525C8.31012 13.1752 6.97434 11.7758 5.94595 10.1399L5.9356 10.128C5.79915 9.90145 5.82971 9.60653 6.0093 9.41605L7.14773 8.22342C7.69167 7.65358 7.69746 6.76586 7.16205 6.20496L5.35328 4.31007C4.82224 3.74821 3.95699 3.74385 3.42087 4.30018L2.94526 4.79844C0.997614 6.83882 0.691535 10.011 2.21746 12.3411L2.9217 13.4166C3.94745 14.9849 5.24171 16.3408 6.73881 17.4155L7.76537 18.1531C9.98945 19.7516 13.0171 19.4313 14.9651 17.3906L15.4317 16.9018C15.9679 16.3451 15.9717 15.4387 15.4402 14.8773L13.6225 12.973C13.0871 12.4121 12.2397 12.4182 11.6958 12.988ZM14.7815 15.5485C14.9591 15.7282 14.9638 16.0245 14.7922 16.2104C14.7889 16.2139 14.7854 16.2175 14.782 16.2211L14.3154 16.7099C12.6805 18.4226 10.1445 18.6958 8.28494 17.3593L7.25869 16.6215C5.85458 15.6138 4.64123 14.3427 3.67934 12.8718L2.975 11.7965C1.69931 9.84859 1.96012 7.1918 3.59498 5.4791L4.06156 4.9903C4.23323 4.80451 4.51616 4.79993 4.69321 4.97988L6.51232 6.88561C6.68947 7.0712 6.68369 7.34824 6.49801 7.54276L5.35958 8.7354C4.87147 9.24993 4.79239 10.0519 5.16974 10.6604C5.16974 10.6604 5.17542 10.667 5.17623 10.6685C6.27162 12.4099 7.6938 13.8998 9.35617 15.0474C9.35769 15.0484 9.36866 15.0592 9.36866 15.0592C9.94965 15.4547 10.7151 15.3724 11.2071 14.8613L12.3455 13.6687C12.5312 13.4741 12.7956 13.4681 12.9728 13.6537L14.7815 15.5485Z" fill="white"/>
<path d="M8.75234 1.32093C8.75528 1.58671 8.96339 1.79963 9.21699 1.79665C11.5461 1.76804 13.7245 2.69033 15.351 4.3942C16.9774 6.09807 17.8578 8.38018 17.8304 10.8201C17.8262 11.0859 18.0286 11.3048 18.2823 11.3091C18.5361 11.3134 18.745 11.1015 18.7492 10.8358L18.7493 10.8314C18.7798 8.13004 17.8037 5.60236 16.0007 3.71355C14.1977 1.82473 11.7849 0.802148 9.20633 0.834053C8.95253 0.837243 8.74939 1.05537 8.75234 1.32093Z" fill="white"/>
<path d="M9.171 3.9655C9.00614 3.96571 8.85406 4.05824 8.77244 4.20819C8.69062 4.35815 8.69204 4.54256 8.77569 4.69125C8.85954 4.83993 9.01284 4.93033 9.1776 4.92809L9.18176 4.92799C12.2544 4.87236 14.7885 7.43684 14.8415 10.6558C14.8426 10.7228 14.8426 10.7898 14.8414 10.8571C14.8373 11.1229 15.0397 11.3418 15.2934 11.3461C15.547 11.3506 15.756 11.1384 15.7603 10.8728L15.7601 10.8683C15.8192 7.11789 12.9649 4.0275 9.3848 3.9655C9.31343 3.96411 9.24227 3.96422 9.171 3.9655Z" fill="white"/>
<path d="M11.6958 12.988L10.5573 14.1806C10.376 14.3689 10.0946 14.4014 9.87859 14.2587L9.87169 14.2525C8.31012 13.1752 6.97434 11.7758 5.94595 10.1399L5.9356 10.128C5.79915 9.90145 5.82971 9.60653 6.0093 9.41605L7.14773 8.22342C7.69167 7.65358 7.69746 6.76586 7.16205 6.20496L5.35328 4.31007C4.82224 3.74821 3.95699 3.74385 3.42087 4.30018L2.94526 4.79844C0.997614 6.83882 0.691535 10.011 2.21746 12.3411L2.9217 13.4166C3.94745 14.9849 5.24171 16.3408 6.73881 17.4155L7.76537 18.1531C9.98945 19.7516 13.0171 19.4313 14.9651 17.3906L15.4317 16.9018C15.9679 16.3451 15.9717 15.4387 15.4402 14.8773L13.6225 12.973C13.0871 12.4121 12.2397 12.4182 11.6958 12.988ZM14.7815 15.5485C14.9591 15.7282 14.9638 16.0245 14.7922 16.2104C14.7889 16.2139 14.7854 16.2175 14.782 16.2211L14.3154 16.7099C12.6805 18.4226 10.1445 18.6958 8.28494 17.3593L7.25869 16.6215C5.85458 15.6138 4.64123 14.3427 3.67934 12.8718L2.975 11.7965C1.69931 9.84859 1.96012 7.1918 3.59498 5.4791L4.06156 4.9903C4.23323 4.80451 4.51616 4.79993 4.69321 4.97988L6.51232 6.88561C6.68947 7.0712 6.68369 7.34824 6.49801 7.54276L5.35958 8.7354C4.87147 9.24993 4.79239 10.0519 5.16974 10.6604C5.16974 10.6604 5.17542 10.667 5.17623 10.6685C6.27162 12.4099 7.6938 13.8998 9.35617 15.0474C9.35769 15.0484 9.36866 15.0592 9.36866 15.0592C9.94965 15.4547 10.7151 15.3724 11.2071 14.8613L12.3455 13.6687C12.5312 13.4741 12.7956 13.4681 12.9728 13.6537L14.7815 15.5485Z" stroke="white" stroke-width="0.7"/>
<path d="M8.75234 1.32093C8.75528 1.58671 8.96339 1.79963 9.21699 1.79665C11.5461 1.76804 13.7245 2.69033 15.351 4.3942C16.9774 6.09807 17.8578 8.38018 17.8304 10.8201C17.8262 11.0859 18.0286 11.3048 18.2823 11.3091C18.5361 11.3134 18.745 11.1015 18.7492 10.8358L18.7493 10.8314C18.7798 8.13004 17.8037 5.60236 16.0007 3.71355C14.1977 1.82473 11.7849 0.802148 9.20633 0.834053C8.95253 0.837243 8.74939 1.05537 8.75234 1.32093Z" stroke="white" stroke-width="0.7"/>
<path d="M9.171 3.9655C9.00614 3.96571 8.85406 4.05824 8.77244 4.20819C8.69062 4.35815 8.69204 4.54256 8.77569 4.69125C8.85954 4.83993 9.01284 4.93033 9.1776 4.92809L9.18176 4.92799C12.2544 4.87236 14.7885 7.43684 14.8415 10.6558C14.8426 10.7228 14.8426 10.7898 14.8414 10.8571C14.8373 11.1229 15.0397 11.3418 15.2934 11.3461C15.547 11.3506 15.756 11.1384 15.7603 10.8728L15.7601 10.8683C15.8192 7.11789 12.9649 4.0275 9.3848 3.9655C9.31343 3.96411 9.24227 3.96422 9.171 3.9655Z" stroke="white" stroke-width="0.7"/>
</svg>
