<svg width="16" height="16" viewBox="0 0 16 16" fill="none" xmlns="http://www.w3.org/2000/svg">
<path d="M15.4813 13.1402C13.7764 11.4098 12.0715 9.70492 10.3665 8C12.0715 6.29508 13.7764 4.59016 15.5067 2.85979C17.0335 1.33299 14.667 -1.03354 13.1402 0.493255C11.4098 2.22362 9.70492 3.92855 8 5.63347C6.29508 3.92855 4.59016 2.22362 2.85979 0.518702C1.33299 -1.00809 -1.03354 1.35844 0.493255 2.88523C2.22362 4.59016 3.92855 6.29508 5.63347 8C3.92855 9.70492 2.22362 11.4098 0.518702 13.1402C-1.00809 14.667 1.35844 17.0335 2.88523 15.5067C4.59016 13.7764 6.29508 12.0715 8 10.3665C9.70492 12.0715 11.4098 13.7764 13.1402 15.5067C14.6416 17.0081 17.0081 14.6416 15.4813 13.1402Z" fill="#23283B"/>
</svg>
