<svg width="170" height="40" viewBox="0 0 170 40" fill="none" xmlns="http://www.w3.org/2000/svg">
<path d="M45.4332 8.14682L44.7578 8.85441V10.9449C44.7598 11.0155 44.7472 11.0857 44.7207 11.1513C44.6942 11.2168 44.6544 11.2761 44.6038 11.3256C44.5529 11.3781 44.4917 11.4197 44.4242 11.4479C44.3566 11.4761 44.284 11.4903 44.2107 11.4897C44.1398 11.4893 44.0697 11.4745 44.0047 11.4463C43.9397 11.4181 43.8811 11.377 43.8325 11.3256C43.782 11.2761 43.7424 11.2167 43.7161 11.1511C43.6899 11.0856 43.6775 11.0154 43.6798 10.9449V4.35327C43.6841 4.21162 43.7381 4.07595 43.8325 3.96988C43.9378 3.87579 44.0733 3.82193 44.2147 3.81787C44.3574 3.8219 44.4942 3.8757 44.6011 3.96988C44.6979 4.07827 44.7526 4.21763 44.7551 4.36269V7.30874L47.7837 4.08019C47.8248 4.02398 47.8771 3.97673 47.9373 3.94134C47.9974 3.90595 48.0642 3.88316 48.1335 3.87437C48.205 3.862 48.2783 3.86534 48.3483 3.88417C48.4183 3.90299 48.4833 3.93684 48.5388 3.98333C48.5954 4.02433 48.643 4.07636 48.6788 4.13625C48.7145 4.19615 48.7377 4.26266 48.7468 4.33175C48.7589 4.4029 48.7553 4.4758 48.7364 4.54545C48.7176 4.61511 48.6838 4.67988 48.6374 4.73532L46.187 7.36389L48.6685 10.6072C48.718 10.6592 48.7558 10.7212 48.7791 10.7889C48.8024 10.8567 48.8107 10.9287 48.8035 11C48.7844 11.1459 48.7082 11.2784 48.5915 11.3686C48.4959 11.4457 48.3767 11.4879 48.2538 11.4884C48.1739 11.4897 48.0948 11.4727 48.0226 11.4387C47.9505 11.4046 47.8872 11.3544 47.8377 11.292L45.4332 8.14682Z" fill="white"/>
<path d="M52.1456 8.52888L49.9261 11.2503C49.8762 11.314 49.8125 11.3657 49.7398 11.4016C49.6671 11.4375 49.5872 11.4565 49.506 11.4574C49.3861 11.4559 49.2703 11.4137 49.1778 11.3377C49.1205 11.297 49.0721 11.2452 49.0357 11.1853C48.9992 11.1254 48.9754 11.0587 48.9657 10.9893C48.9532 10.9182 48.9565 10.8451 48.9754 10.7754C48.9943 10.7057 49.0283 10.6409 49.0751 10.5857L51.458 7.64641L49.1008 4.72861C49.0545 4.67313 49.0207 4.60836 49.0018 4.53871C48.983 4.46907 48.9794 4.39619 48.9913 4.32504C48.9966 4.25461 49.0176 4.18622 49.0526 4.12481C49.0876 4.0634 49.1359 4.01049 49.194 3.9699C49.2476 3.92439 49.3106 3.89106 49.3784 3.87225C49.4463 3.85343 49.5175 3.84957 49.5871 3.86094C49.7294 3.88159 49.8585 3.95571 49.9477 4.0681L52.1456 6.76798L54.2988 4.06407C54.388 3.95168 54.5171 3.87755 54.6595 3.8569C54.7292 3.8456 54.8006 3.84949 54.8687 3.86831C54.9368 3.88712 55 3.9204 55.0539 3.96587C55.1131 4.0066 55.1623 4.05999 55.1981 4.12214C55.2339 4.18429 55.2552 4.25361 55.2606 4.32504C55.2728 4.39619 55.2694 4.46913 55.2505 4.53882C55.2316 4.60851 55.1977 4.67327 55.1512 4.72861L52.8345 7.64641L52.1456 8.52888Z" fill="white"/>
<path d="M58.7268 3.8464C59.0101 3.85013 59.2897 3.91066 59.5489 4.02437C59.8082 4.13809 60.0418 4.30265 60.2357 4.50825C60.6288 4.90204 60.852 5.43298 60.8581 5.98817C60.8642 6.54336 60.6525 7.079 60.2682 7.4812C59.8737 7.89483 59.3408 8.15035 58.7701 8.19955C58.7638 8.20583 58.1406 8.20942 56.9005 8.21031V10.9008C56.9023 10.9722 56.8886 11.0432 56.8604 11.1088C56.8322 11.1745 56.7901 11.2334 56.7371 11.2815C56.6879 11.3333 56.6286 11.3745 56.5629 11.4027C56.4972 11.4309 56.4263 11.4455 56.3548 11.4456C56.2119 11.4422 56.0757 11.3847 55.974 11.2847C55.8723 11.1847 55.8128 11.0497 55.8077 10.9075V4.39121C55.8069 4.31834 55.821 4.24607 55.8491 4.17878C55.8772 4.11149 55.9187 4.05058 55.9711 3.99975C56.0211 3.94937 56.081 3.90975 56.1469 3.88337C56.2129 3.85699 56.2837 3.8444 56.3548 3.8464H58.7268ZM58.639 7.12337C58.7876 7.12626 58.9352 7.09861 59.0726 7.04213C59.2099 6.98566 59.3341 6.90157 59.4374 6.79514C59.6451 6.58675 59.765 6.30712 59.7724 6.01356C59.7631 5.72198 59.6417 5.44508 59.4333 5.24005C59.328 5.13798 59.2029 5.05837 59.0656 5.0061C58.9284 4.95383 58.7818 4.92998 58.635 4.93603H56.9005V7.12337H58.639Z" fill="white"/>
<path d="M68.0517 6.50318C67.9276 6.57011 67.7822 6.58604 67.6464 6.54757C67.5802 6.53279 67.518 6.50351 67.4645 6.46186C67.411 6.42022 67.3675 6.36724 67.3371 6.30678C66.7914 5.40009 66.0079 4.94675 64.9866 4.94675C64.2624 4.95165 63.569 5.2396 63.0559 5.7486C62.5427 6.2576 62.2509 6.94693 62.2431 7.66815C62.2374 8.02437 62.3066 8.37784 62.4462 8.70588C62.5857 9.03392 62.7926 9.32927 63.0536 9.57299C63.3081 9.82362 63.6103 10.0211 63.9425 10.154C64.2746 10.2868 64.6301 10.3522 64.988 10.3465C65.4358 10.3484 65.8769 10.2373 66.2699 10.0236C66.672 9.8045 67.0139 9.49038 67.2655 9.10889C67.2978 9.0433 67.3459 8.98673 67.4056 8.94423C67.4652 8.90173 67.5345 8.87465 67.6073 8.8654C67.675 8.84932 67.7458 8.85089 67.8128 8.86998C67.8797 8.88907 67.9406 8.92502 67.9896 8.97436C68.0549 9.00436 68.113 9.04818 68.1596 9.10278C68.2063 9.15737 68.2404 9.22143 68.2597 9.29049C68.2832 9.35862 68.2885 9.43168 68.275 9.50245C68.2615 9.57322 68.2297 9.63926 68.1827 9.69406C67.8398 10.234 67.3666 10.6798 66.8062 10.9909C66.2492 11.3037 65.6193 11.4651 64.9799 11.459C64.4761 11.4652 63.9763 11.37 63.5104 11.1791C63.0445 10.9881 62.6222 10.7054 62.2688 10.3478C61.901 10.0052 61.6091 9.58991 61.4118 9.12846C61.2146 8.66701 61.1163 8.16962 61.1232 7.66815C61.1153 7.16012 61.2132 6.65597 61.4108 6.18756C61.6084 5.71914 61.9015 5.29664 62.2715 4.94675C62.868 4.35739 63.642 3.97877 64.475 3.86872C65.308 3.75868 66.1543 3.92328 66.8846 4.33736C67.4623 4.65901 67.9356 5.13834 68.2489 5.71891C68.2939 5.78723 68.3241 5.8642 68.3373 5.94484C68.3506 6.02548 68.3467 6.108 68.3259 6.18705C68.3063 6.25654 68.2715 6.32088 68.2241 6.37551C68.1768 6.43014 68.1179 6.47373 68.0517 6.50318Z" fill="white"/>
<path d="M69.616 11.4469C69.5442 11.4495 69.4727 11.4372 69.406 11.4108C69.3392 11.3844 69.2787 11.3445 69.2283 11.2936C69.1758 11.2427 69.1343 11.1818 69.1062 11.1145C69.0781 11.0472 69.064 10.975 69.0648 10.9021V4.3912C69.0615 4.31958 69.0745 4.24815 69.1028 4.18223C69.1311 4.11631 69.174 4.05761 69.2283 4.0105C69.2767 3.95742 69.3361 3.91531 69.4022 3.887C69.4684 3.85869 69.5399 3.84484 69.6119 3.84638C69.6835 3.84644 69.7543 3.86102 69.82 3.88924C69.8858 3.91746 69.945 3.95872 69.9942 4.0105C70.0485 4.05761 70.0914 4.11631 70.1197 4.18223C70.148 4.24815 70.161 4.31958 70.1577 4.3912V7.08165C71.3977 7.08165 72.0209 7.08524 72.0272 7.09242C72.5979 7.14162 73.1308 7.39714 73.5253 7.81077C73.9101 8.20353 74.1224 8.73243 74.1156 9.2811C74.1086 9.84609 73.8832 10.3866 73.4861 10.7903C73.0891 11.1939 72.5511 11.4296 71.984 11.4483L69.616 11.4469ZM70.1563 8.1686V10.3573H71.8948C72.0417 10.3633 72.1882 10.3395 72.3255 10.2872C72.4627 10.2349 72.5879 10.1553 72.6932 10.0533C72.9016 9.84823 73.023 9.57134 73.0322 9.27976C73.0245 8.98469 72.9031 8.7039 72.6932 8.49549C72.5898 8.3893 72.4656 8.30546 72.3282 8.24922C72.1909 8.19297 72.0433 8.16553 71.8948 8.1686H70.1563ZM74.4533 4.34815C74.4533 4.20544 74.5103 4.06857 74.6116 3.96766C74.7129 3.86675 74.8504 3.81006 74.9937 3.81006C75.1404 3.81369 75.2807 3.87062 75.3881 3.97014C75.4825 4.07567 75.5365 4.21093 75.5408 4.35219V10.9236C75.5427 10.9941 75.5301 11.0642 75.5039 11.1297C75.4776 11.1951 75.4382 11.2546 75.3881 11.3043C75.3389 11.3561 75.2797 11.3974 75.2139 11.4256C75.1482 11.4538 75.0774 11.4684 75.0058 11.4684C74.8641 11.4634 74.7296 11.4051 74.6293 11.3053C74.5291 11.2054 74.4705 11.0715 74.4655 10.9304L74.4533 4.34815Z" fill="white"/>
<path d="M84.1997 3.82471C84.3414 3.8289 84.4769 3.88328 84.5819 3.97806C84.6798 4.08689 84.7346 4.22748 84.7359 4.37356C84.7317 4.51466 84.6771 4.64965 84.5819 4.75426C84.4768 4.84866 84.3412 4.90256 84.1997 4.90627H82.5381V10.9235C82.5401 10.9941 82.5275 11.0643 82.501 11.1298C82.4745 11.1953 82.4347 11.2547 82.3841 11.3042C82.3351 11.3562 82.2759 11.3976 82.2102 11.4259C82.1444 11.4541 82.0735 11.4686 82.0018 11.4683C81.8601 11.4633 81.7256 11.405 81.6254 11.3051C81.5251 11.2053 81.4665 11.0713 81.4615 10.9302V4.90223H79.804C79.7332 4.9043 79.6628 4.89187 79.597 4.86572C79.5313 4.83957 79.4716 4.80026 79.4217 4.75022C79.3703 4.70174 79.3293 4.64335 79.3012 4.57861C79.2731 4.51386 79.2585 4.4441 79.2583 4.37356C79.2575 4.30069 79.2716 4.22841 79.2997 4.16112C79.3278 4.09383 79.3693 4.03293 79.4217 3.9821C79.4716 3.93188 79.5312 3.89236 79.5969 3.86599C79.6627 3.83961 79.7332 3.82694 79.804 3.82874L84.1997 3.82471Z" fill="white"/>
<path d="M88.1022 8.5289L85.8828 11.2503C85.8323 11.3147 85.7678 11.3669 85.6941 11.4028C85.6203 11.4387 85.5394 11.4574 85.4573 11.4575C85.3373 11.4564 85.2214 11.4141 85.1291 11.3377C85.0724 11.2969 85.0247 11.2449 84.9889 11.1849C84.9531 11.125 84.93 11.0585 84.921 10.9893C84.9091 10.9182 84.9128 10.8453 84.9316 10.7757C84.9505 10.7061 84.9842 10.6413 85.0304 10.5858L87.4133 7.64643L85.0521 4.72863C85.0058 4.67315 84.972 4.60838 84.9531 4.53873C84.9343 4.46909 84.9307 4.39621 84.9426 4.32506C84.9602 4.18368 85.0333 4.05501 85.146 3.96725C85.2587 3.87949 85.4017 3.83982 85.5438 3.85692C85.6861 3.87757 85.8152 3.95169 85.9044 4.06409L88.1022 6.76396L90.2568 4.06409C90.3461 3.95169 90.4751 3.87757 90.6175 3.85692C90.7595 3.83982 90.9026 3.87949 91.0153 3.96725C91.1279 4.05501 91.2011 4.18368 91.2186 4.32506C91.2306 4.39621 91.227 4.46909 91.2081 4.53873C91.1893 4.60838 91.1555 4.67315 91.1092 4.72863L88.7912 7.64643L88.1022 8.5289Z" fill="white"/>
<path d="M94.6836 3.84639C94.9668 3.85012 95.2464 3.91065 95.5057 4.02437C95.7649 4.13808 95.9985 4.30265 96.1925 4.50824C96.3929 4.70377 96.5514 4.93774 96.6584 5.19601C96.7655 5.45428 96.8188 5.73148 96.8152 6.01086C96.8189 6.28258 96.7686 6.55234 96.6673 6.80466C96.566 7.05698 96.4156 7.28689 96.2249 7.4812C95.8307 7.89453 95.2984 8.15003 94.7281 8.19955C94.72 8.20583 94.0968 8.20941 92.8586 8.21031V10.9008C92.8601 10.9723 92.8462 11.0433 92.8177 11.109C92.7893 11.1746 92.747 11.2335 92.6938 11.2815C92.6447 11.3334 92.5854 11.3747 92.5197 11.4029C92.4539 11.4312 92.3831 11.4457 92.3115 11.4456C92.17 11.4399 92.0358 11.3814 91.9357 11.2817C91.8355 11.182 91.7768 11.0484 91.7711 10.9075V4.39121C91.7705 4.31824 91.7848 4.24591 91.8131 4.17861C91.8415 4.11131 91.8832 4.05046 91.9359 3.99975C91.9857 3.9494 92.0453 3.9098 92.111 3.88341C92.1768 3.85703 92.2473 3.84442 92.3182 3.84639H94.6836ZM94.5971 7.12337C94.7455 7.12607 94.8928 7.09833 95.0299 7.04186C95.167 6.98539 95.291 6.9014 95.3941 6.79513C95.6045 6.58704 95.726 6.30605 95.7332 6.01086C95.7246 5.71913 95.6031 5.44199 95.3941 5.23736C95.289 5.13545 95.164 5.05594 95.027 5.00368C94.89 4.95141 94.7437 4.92747 94.5971 4.93334H92.8586V7.12337H94.5971Z" fill="white"/>
<path d="M101.513 10.3573C101.655 10.3615 101.791 10.4159 101.896 10.5106C101.948 10.5615 101.99 10.6224 102.018 10.6897C102.046 10.757 102.06 10.8292 102.059 10.9021C102.061 10.9735 102.047 11.0445 102.019 11.1102C101.991 11.1759 101.949 11.2348 101.896 11.2828C101.847 11.3346 101.787 11.3758 101.722 11.4041C101.656 11.4323 101.585 11.4469 101.513 11.4469H97.7013C97.5598 11.4413 97.4257 11.3828 97.3255 11.2831C97.2254 11.1834 97.1667 11.0497 97.161 10.9088V4.39121C97.1604 4.31824 97.1747 4.24591 97.203 4.17861C97.2313 4.11131 97.2731 4.05046 97.3258 3.99975C97.3755 3.9494 97.4351 3.9098 97.5009 3.88341C97.5667 3.85703 97.6372 3.84442 97.7081 3.84639H101.513C101.655 3.85059 101.791 3.90496 101.896 3.99975C101.948 4.05057 101.99 4.11148 102.018 4.17877C102.046 4.24606 102.06 4.31834 102.059 4.39121C102.062 4.46322 102.05 4.53503 102.022 4.60169C101.995 4.66835 101.953 4.72827 101.9 4.77729C101.85 4.82859 101.789 4.86914 101.723 4.89644C101.657 4.92374 101.585 4.93721 101.513 4.93603H98.2444V7.12337H100.737C100.878 7.12756 101.014 7.18194 101.119 7.27672C101.172 7.32743 101.213 7.38829 101.242 7.45559C101.27 7.52288 101.284 7.59521 101.284 7.66818C101.285 7.73969 101.271 7.8107 101.243 7.87638C101.214 7.94206 101.172 8.00089 101.119 8.04888C101.07 8.10079 101.011 8.14213 100.945 8.17036C100.879 8.19859 100.808 8.2131 100.737 8.213H98.2484V10.3573H101.513Z" fill="white"/>
<path d="M108.284 11.4576H103.269C103.198 11.459 103.126 11.4451 103.06 11.4168C102.995 11.3885 102.935 11.3464 102.887 11.2935C102.835 11.2445 102.794 11.1855 102.766 11.12C102.738 11.0545 102.723 10.984 102.724 10.9128V4.40187C102.721 4.33026 102.734 4.25886 102.762 4.19296C102.79 4.12706 102.833 4.06834 102.887 4.02117C102.935 3.9682 102.995 3.92614 103.06 3.89783C103.126 3.86952 103.198 3.85561 103.269 3.85705C103.341 3.85693 103.412 3.87142 103.478 3.89964C103.544 3.92787 103.604 3.96922 103.653 4.02117C103.706 4.06898 103.748 4.12798 103.775 4.19385C103.802 4.25972 103.814 4.33079 103.81 4.40187V10.368H107.187V4.40187C107.184 4.33026 107.197 4.25886 107.225 4.19296C107.253 4.12706 107.296 4.06834 107.35 4.02117C107.399 3.96809 107.458 3.92598 107.524 3.89767C107.591 3.86936 107.662 3.85551 107.734 3.85705C107.806 3.85711 107.876 3.87169 107.942 3.89991C108.008 3.92813 108.067 3.96939 108.116 4.02117C108.171 4.06834 108.213 4.12706 108.242 4.19296C108.27 4.25886 108.283 4.33026 108.28 4.40187V10.368H108.838C108.983 10.3705 109.122 10.425 109.231 10.5213C109.326 10.6258 109.381 10.7609 109.385 10.902V12.6871C109.387 12.7577 109.374 12.8279 109.348 12.8934C109.321 12.959 109.281 13.0183 109.231 13.0678C109.127 13.1721 108.985 13.2311 108.838 13.2319C108.764 13.2326 108.692 13.2183 108.624 13.1901C108.557 13.1619 108.496 13.1203 108.445 13.0678C108.391 13.0198 108.349 12.961 108.321 12.8953C108.292 12.8296 108.278 12.7586 108.28 12.6871L108.284 11.4576Z" fill="white"/>
<path d="M111.695 8.14682L111.019 8.85441V10.9449C111.021 11.0155 111.009 11.0857 110.982 11.1513C110.956 11.2168 110.916 11.2761 110.865 11.3256C110.814 11.3781 110.753 11.4197 110.686 11.4479C110.618 11.4761 110.545 11.4903 110.472 11.4897C110.401 11.4898 110.33 11.4753 110.264 11.4471C110.198 11.4188 110.139 11.3775 110.09 11.3256C110.039 11.2761 109.999 11.2168 109.973 11.1513C109.946 11.0857 109.934 11.0155 109.936 10.9449V4.35327C109.94 4.21165 109.994 4.07601 110.089 3.96988C110.194 3.87579 110.329 3.82193 110.471 3.81787C110.616 3.82079 110.755 3.87463 110.864 3.96988C110.961 4.07827 111.015 4.21763 111.018 4.36269V7.30874L114.045 4.08019C114.087 4.02414 114.139 3.97702 114.199 3.94164C114.259 3.90627 114.326 3.88339 114.395 3.87437C114.466 3.86218 114.54 3.86562 114.61 3.88443C114.68 3.90325 114.745 3.937 114.8 3.98333C114.857 4.0245 114.904 4.07657 114.94 4.13643C114.976 4.1963 114.999 4.26273 115.008 4.33175C115.02 4.4029 115.017 4.4758 114.998 4.54545C114.979 4.61511 114.945 4.67988 114.899 4.73532L112.455 7.36389L114.937 10.6072C114.986 10.6592 115.024 10.7212 115.047 10.7889C115.071 10.8567 115.079 10.9287 115.072 11C115.062 11.0727 115.037 11.1426 115 11.2059C114.963 11.2691 114.913 11.3244 114.854 11.3686C114.758 11.4459 114.639 11.4882 114.515 11.4884C114.436 11.4896 114.357 11.4726 114.285 11.4385C114.213 11.4044 114.15 11.3543 114.101 11.292L111.695 8.14682Z" fill="white"/>
<path d="M119.119 11.4468C118.618 11.4543 118.121 11.3574 117.659 11.1624C117.198 10.9673 116.783 10.6784 116.44 10.3141C116.084 9.96066 115.803 9.53956 115.613 9.07579C115.423 8.61201 115.329 8.11501 115.335 7.61424C115.331 7.12028 115.427 6.6306 115.617 6.17422C115.807 5.71785 116.087 5.30407 116.44 4.95742C116.791 4.60531 117.208 4.32583 117.668 4.13511C118.127 3.94439 118.62 3.84619 119.118 3.84619C119.616 3.84619 120.109 3.94439 120.569 4.13511C121.028 4.32583 121.446 4.60531 121.796 4.95742C122.15 5.30407 122.43 5.71785 122.619 6.17422C122.809 6.6306 122.905 7.12028 122.901 7.61424C122.908 8.11501 122.814 8.61201 122.624 9.07579C122.434 9.53956 122.153 9.96066 121.796 10.3141C121.454 10.6783 121.039 10.9673 120.578 11.1623C120.117 11.3574 119.62 11.4543 119.119 11.4468ZM119.119 4.90226C118.397 4.90298 117.705 5.18893 117.194 5.69737C116.683 6.20581 116.396 6.8952 116.396 7.61424C116.387 7.9796 116.453 8.34292 116.59 8.68185C116.727 9.02077 116.933 9.32813 117.194 9.585C117.445 9.83901 117.745 10.0407 118.075 10.1784C118.406 10.3161 118.76 10.387 119.118 10.387C119.476 10.387 119.831 10.3161 120.161 10.1784C120.492 10.0407 120.791 9.83901 121.043 9.585C121.302 9.3265 121.508 9.01912 121.647 8.68077C121.786 8.34241 121.856 7.97986 121.853 7.61424C121.856 7.25655 121.786 6.90194 121.647 6.57226C121.508 6.24258 121.302 5.94481 121.043 5.69729C120.793 5.44095 120.494 5.23816 120.163 5.10142C119.833 4.96468 119.477 4.8969 119.119 4.90226Z" fill="white"/>
<path d="M124.595 4.94668V10.9128C124.596 10.9856 124.582 11.0579 124.554 11.1252C124.526 11.1925 124.484 11.2534 124.432 11.3042C124.327 11.399 124.191 11.4534 124.05 11.4576C123.979 11.4594 123.908 11.4467 123.842 11.4203C123.777 11.394 123.717 11.3544 123.667 11.3042C123.615 11.2534 123.573 11.1925 123.545 11.1252C123.517 11.0579 123.503 10.9856 123.504 10.9128V4.40187C123.501 4.33026 123.514 4.25886 123.542 4.19296C123.57 4.12706 123.613 4.06834 123.667 4.02117C123.716 3.96809 123.775 3.92598 123.841 3.89767C123.907 3.86936 123.979 3.85551 124.051 3.85705H127.855C127.926 3.85695 127.997 3.87146 128.063 3.89969C128.129 3.92792 128.188 3.96926 128.237 4.02117C128.29 4.06891 128.332 4.12787 128.359 4.19373C128.387 4.25959 128.399 4.3307 128.395 4.40187C128.396 4.47506 128.382 4.54765 128.353 4.61519C128.325 4.68273 128.283 4.7438 128.23 4.79467C128.127 4.88731 127.994 4.94106 127.855 4.94668H124.595Z" fill="white"/>
<path d="M132.456 11.4469C131.955 11.4544 131.458 11.3575 130.996 11.1625C130.535 10.9674 130.12 10.6785 129.777 10.3142C129.421 9.9607 129.14 9.53956 128.95 9.07579C128.761 8.61201 128.666 8.11504 128.673 7.61436C128.669 7.12048 128.765 6.63083 128.955 6.17445C129.144 5.71807 129.424 5.30425 129.777 4.95753C130.128 4.60538 130.545 4.32588 131.005 4.13514C131.465 3.94439 131.958 3.84619 132.456 3.84619C132.954 3.84619 133.447 3.94439 133.907 4.13514C134.366 4.32588 134.784 4.60538 135.134 4.95753C135.488 5.30418 135.768 5.71796 135.958 6.17434C136.147 6.63071 136.243 7.1204 136.239 7.61436C136.246 8.11512 136.152 8.61213 135.962 9.0759C135.772 9.53967 135.491 9.96077 135.134 10.3142C134.792 10.6785 134.377 10.9674 133.915 11.1625C133.454 11.3575 132.957 11.4544 132.456 11.4469ZM132.456 4.90238C131.734 4.90344 131.042 5.18956 130.532 5.69796C130.021 6.20636 129.735 6.89555 129.734 7.61436C129.725 7.97971 129.791 8.34303 129.928 8.68196C130.066 9.02088 130.271 9.32824 130.532 9.58511C130.784 9.83912 131.083 10.0408 131.413 10.1785C131.744 10.3162 132.098 10.3871 132.456 10.3871C132.815 10.3871 133.169 10.3162 133.499 10.1785C133.83 10.0408 134.129 9.83912 134.381 9.58511C134.64 9.32662 134.846 9.01923 134.985 8.68088C135.124 8.34253 135.194 7.97997 135.191 7.61436C135.195 7.25666 135.124 6.90205 134.985 6.57237C134.846 6.24269 134.64 5.94492 134.381 5.69741C134.131 5.44096 133.832 5.23811 133.501 5.10138C133.17 4.96464 132.814 4.89691 132.456 4.90238Z" fill="white"/>
<path d="M144.68 3.86917C144.753 3.86838 144.825 3.8824 144.893 3.91038C144.96 3.93836 145.022 3.97972 145.073 4.03194C145.125 4.08089 145.166 4.13994 145.194 4.20542C145.222 4.2709 145.236 4.34143 145.236 4.41264V10.9235C145.238 10.995 145.224 11.0659 145.196 11.1316C145.168 11.1973 145.126 11.2562 145.073 11.3042C144.97 11.4025 144.832 11.4574 144.69 11.4574C144.547 11.4574 144.41 11.4025 144.307 11.3042C144.254 11.2562 144.212 11.1973 144.183 11.1316C144.155 11.0659 144.141 10.995 144.143 10.9235V8.23309H143.027L141.213 11.1926C141.166 11.2747 141.097 11.3428 141.015 11.3901C140.932 11.4373 140.838 11.462 140.743 11.4616C140.643 11.4663 140.544 11.4395 140.459 11.385C140.396 11.3473 140.34 11.2969 140.297 11.237C140.253 11.177 140.223 11.1088 140.207 11.0365C140.188 10.9685 140.184 10.8972 140.196 10.8276C140.207 10.758 140.234 10.6916 140.273 10.633L141.804 8.14969C141.341 7.99429 140.934 7.70655 140.634 7.32237C140.341 6.95393 140.182 6.49697 140.185 6.02692C140.188 5.73888 140.249 5.45435 140.365 5.19052C140.481 4.92669 140.65 4.68907 140.861 4.49201C141.056 4.29429 141.289 4.13755 141.547 4.03104C141.804 3.92454 142.08 3.87041 142.359 3.87186L144.68 3.86917ZM144.139 7.14615V4.95746H142.401C142.254 4.95159 142.107 4.97565 141.97 5.02815C141.833 5.08066 141.707 5.16052 141.602 5.26283C141.394 5.46729 141.272 5.74378 141.263 6.03499C141.271 6.33005 141.392 6.61084 141.602 6.81926C141.706 6.92545 141.83 7.00929 141.967 7.06553C142.105 7.12177 142.252 7.14922 142.401 7.14615H144.139Z" fill="white"/>
<path d="M147.037 9.41034C147.057 9.55583 147.108 9.69558 147.185 9.82097C147.261 9.94637 147.363 10.0548 147.484 10.1395C147.739 10.3289 148.052 10.424 148.37 10.4085C148.692 10.4184 149.005 10.3053 149.245 10.0924C149.356 9.99823 149.444 9.88117 149.504 9.74941C149.565 9.61765 149.595 9.47438 149.594 9.32963C149.593 9.18067 149.562 9.03344 149.502 8.89696C149.442 8.76048 149.355 8.63763 149.245 8.53594C149.131 8.42143 148.994 8.33144 148.844 8.27152C148.693 8.2116 148.532 8.18302 148.37 8.18753C148.207 8.19146 148.048 8.13705 147.922 8.03417C147.868 7.98611 147.826 7.92724 147.798 7.86155C147.77 7.79586 147.756 7.72489 147.758 7.65347C147.757 7.5806 147.771 7.50833 147.799 7.44104C147.828 7.37374 147.869 7.31284 147.922 7.26201C148.048 7.15913 148.207 7.10472 148.37 7.10866C148.531 7.11481 148.692 7.08803 148.843 7.02996C148.993 6.9719 149.13 6.88377 149.245 6.771C149.356 6.66732 149.444 6.54221 149.504 6.40338C149.564 6.26456 149.594 6.11498 149.594 5.96387C149.595 5.81913 149.564 5.67588 149.504 5.54414C149.444 5.41239 149.356 5.29533 149.245 5.20112C149.005 4.98822 148.692 4.8751 148.37 4.88499C148.063 4.88757 147.763 4.97868 147.507 5.14731C147.278 5.27897 147.11 5.49347 147.037 5.74594C146.998 5.88872 146.914 6.01495 146.796 6.10511C146.736 6.15478 146.665 6.18878 146.589 6.20405C146.512 6.21932 146.433 6.21537 146.359 6.19255C145.988 6.12619 145.802 5.92261 145.801 5.58182C145.864 5.31893 145.978 5.07103 146.138 4.85239C146.297 4.63375 146.498 4.4487 146.73 4.30789C147.217 3.98711 147.791 3.82234 148.374 3.83572C149.005 3.82647 149.618 4.04321 150.102 4.44645C150.335 4.62669 150.523 4.85791 150.652 5.12221C150.781 5.38651 150.847 5.6768 150.845 5.97059C150.851 6.30186 150.774 6.62942 150.621 6.92386C150.469 7.2183 150.245 7.4704 149.971 7.65751C150.243 7.8442 150.465 8.0947 150.618 8.38698C150.77 8.67925 150.848 9.00435 150.845 9.33366C150.845 9.90852 150.597 10.4094 150.102 10.8363C149.627 11.2576 149.01 11.487 148.374 11.4793C147.758 11.4914 147.155 11.3024 146.657 10.9412C146.208 10.6132 145.903 10.1258 145.805 9.57984C145.805 9.23905 145.991 9.03233 146.363 8.95969C146.527 8.95867 146.687 9.00799 146.822 9.10094C146.88 9.13189 146.929 9.17608 146.967 9.22988C147.004 9.28367 147.028 9.34552 147.037 9.41034Z" fill="white"/>
<path d="M152.035 11.4469C151.964 11.4489 151.893 11.4363 151.828 11.4099C151.762 11.3835 151.702 11.3439 151.653 11.2936C151.6 11.2427 151.559 11.1818 151.531 11.1145C151.502 11.0472 151.488 10.975 151.489 10.9021V4.3912C151.486 4.31958 151.499 4.24815 151.527 4.18223C151.555 4.11631 151.598 4.05761 151.653 4.0105C151.701 3.95746 151.76 3.91536 151.826 3.88704C151.892 3.85872 151.963 3.84486 152.035 3.84638C152.107 3.84626 152.178 3.86075 152.244 3.88897C152.31 3.9172 152.369 3.95855 152.419 4.0105C152.473 4.0578 152.515 4.11653 152.544 4.18241C152.572 4.24828 152.585 4.31962 152.582 4.3912V7.08165C153.821 7.08165 154.444 7.08524 154.452 7.09242C155.023 7.14086 155.557 7.39591 155.952 7.80942C156.337 8.20219 156.549 8.73108 156.543 9.27976C156.535 9.84464 156.31 10.385 155.913 10.7886C155.516 11.1922 154.978 11.4279 154.411 11.4469H152.035ZM152.575 8.1686V10.3573H154.314C154.461 10.3633 154.607 10.3395 154.744 10.2872C154.882 10.2349 155.007 10.1553 155.112 10.0533C155.321 9.8485 155.442 9.57134 155.45 9.27976C155.443 8.98473 155.322 8.70372 155.112 8.49549C155.009 8.3893 154.884 8.30546 154.747 8.24922C154.61 8.19298 154.462 8.16553 154.314 8.1686H152.575ZM156.872 4.34815C156.872 4.20544 156.929 4.06857 157.03 3.96766C157.132 3.86675 157.269 3.81006 157.413 3.81006C157.554 3.81426 157.69 3.86808 157.796 3.96207C157.891 4.0676 157.945 4.20286 157.949 4.34411V10.9236C157.951 10.9941 157.938 11.0642 157.912 11.1297C157.886 11.1951 157.846 11.2546 157.796 11.3043C157.747 11.3563 157.687 11.3976 157.621 11.4258C157.555 11.4541 157.484 11.4686 157.413 11.4684C157.271 11.4634 157.136 11.4051 157.036 11.3053C156.936 11.2054 156.877 11.0715 156.872 10.9304V4.34815Z" fill="white"/>
<path d="M160.444 8.14695L159.768 8.85454V10.945C159.77 11.0155 159.758 11.0856 159.732 11.1511C159.705 11.2166 159.666 11.276 159.616 11.3257C159.565 11.3782 159.504 11.4198 159.436 11.448C159.369 11.4762 159.296 11.4905 159.223 11.4898C159.151 11.49 159.08 11.4755 159.014 11.4473C158.948 11.419 158.888 11.3777 158.839 11.3257C158.789 11.276 158.749 11.2166 158.723 11.1511C158.697 11.0856 158.684 11.0155 158.686 10.945V4.35341C158.689 4.20862 158.743 4.06943 158.839 3.9606C158.945 3.86642 159.081 3.81257 159.223 3.80859C159.368 3.81475 159.506 3.87194 159.613 3.97002C159.709 4.07885 159.763 4.21803 159.766 4.36283V7.30888L162.794 4.08033C162.836 4.02428 162.888 3.97715 162.948 3.94178C163.008 3.90641 163.075 3.88353 163.144 3.87451C163.216 3.86214 163.289 3.86548 163.359 3.88431C163.429 3.90313 163.494 3.93698 163.549 3.98347C163.606 4.02424 163.654 4.07621 163.69 4.13615C163.726 4.19608 163.749 4.26271 163.757 4.33189C163.77 4.40303 163.766 4.47594 163.747 4.54559C163.728 4.61525 163.694 4.68002 163.648 4.73546L161.199 7.36L163.682 10.6033C163.731 10.6557 163.768 10.7177 163.791 10.7854C163.815 10.8531 163.823 10.9249 163.817 10.9961C163.798 11.1415 163.723 11.2741 163.609 11.3661C163.513 11.4434 163.393 11.4856 163.27 11.4858C163.19 11.4871 163.111 11.47 163.039 11.436C162.967 11.4019 162.903 11.3518 162.854 11.2894L160.444 8.14695Z" fill="white"/>
<path d="M168.163 9.94434H165.495L165.035 11.0542C164.984 11.3151 164.81 11.447 164.511 11.447H164.39C164.315 11.4189 164.247 11.3766 164.189 11.3224C164.131 11.2681 164.085 11.203 164.052 11.1308C163.979 11.0515 163.96 10.9169 163.997 10.7273L166.336 4.23922C166.364 4.1201 166.434 4.01488 166.533 3.94278C166.632 3.87067 166.754 3.83647 166.877 3.84642C166.995 3.83833 167.113 3.87378 167.208 3.94612C167.302 4.01846 167.367 4.12269 167.39 4.23922L169.609 10.7273C169.661 10.8569 169.661 11.0012 169.609 11.1308C169.545 11.2743 169.427 11.3875 169.281 11.447C169.143 11.4714 169.002 11.4521 168.876 11.3918C168.735 11.3176 168.623 11.1988 168.558 11.0542L168.163 9.94434ZM167.84 8.84394L166.878 6.05663L165.893 8.84394H167.84Z" fill="white"/>
<path d="M53.5882 15.4839C54.3987 13.6625 57.1504 13.7351 57.9204 15.5539C60.333 20.651 62.1607 26.0117 64.4639 31.1585C65.9025 31.4451 68.407 31.5298 68.2287 33.6136C68.4988 35.1323 66.9994 36.4386 65.527 36.2085C59.0429 36.2475 52.5508 36.3175 46.0627 36.2166C44.1715 36.4264 42.8423 34.4422 43.4421 32.7378C44.1337 31.3213 45.8452 31.515 47.1285 31.1653C49.4101 25.9955 51.177 20.5971 53.5882 15.4839ZM52.4778 31.4034C54.6797 31.3953 56.8811 31.3953 59.0821 31.4034C58.0167 28.5918 56.9433 25.7826 55.8617 22.9755C54.5608 25.709 53.5261 28.5609 52.4778 31.4034Z" fill="#E6514A"/>
<path d="M69.7686 16.1688C69.8145 14.9312 70.8628 13.9787 72.0245 14.0272C72.5581 14.0597 73.0617 14.2839 73.4418 14.6582C73.8219 15.0325 74.0527 15.5315 74.0913 16.0625C74.0805 20.1421 74.0688 24.2226 74.0562 28.3041C76.1815 25.8342 78.314 23.3137 80.4538 20.7425C81.9577 18.931 83.4391 17.1284 84.8981 15.3347C85.1347 15.0105 85.4412 14.743 85.795 14.5518C86.5123 14.1657 87.5444 14.042 88.1928 14.4872C88.9708 15.0253 89.0222 16.1836 89.0384 16.7069C89.1127 19.1 89.1275 25.6943 89.0141 34.5634C88.6304 35.7526 87.4809 36.5005 86.3124 36.3714C85.8063 36.3061 85.3313 36.092 84.948 35.7565C84.5647 35.4211 84.2905 34.9795 84.1605 34.4881C84.1119 30.9394 84.0637 27.3902 84.0159 23.8406L78.0088 30.2385C76.3756 32.099 74.945 33.6487 73.7941 34.8876C73.5321 35.1701 72.8026 35.9221 71.8124 36.0983C71.5828 36.14 70.8398 36.2718 70.2941 35.8575C70.2382 35.8185 70.1849 35.7758 70.1347 35.7297C69.7038 35.3262 69.6741 34.741 69.6606 34.5029C69.6214 33.7912 69.6511 26.3548 69.7686 16.1688Z" fill="#E6514A"/>
<path d="M96.7395 16.6531C97.4393 14.8492 99.2602 13.1757 101.332 13.8726C103.629 14.8869 104.169 17.5598 105.058 19.657C106.653 24.3438 108.84 28.8449 110.091 33.6474C110.596 35.5388 108.335 36.8477 106.714 36.1576C105.22 35.2052 105.034 33.3071 104.403 31.8044C101.688 31.7964 98.9806 31.8044 96.2735 31.7816C95.7683 33.0286 95.3873 34.3537 94.6525 35.4917C93.6177 36.7697 91.2997 36.615 90.5527 35.1124C90.3109 32.9425 91.3456 30.9287 92.0535 28.9458C93.6785 24.8658 95.0294 20.6902 96.7395 16.6531ZM97.5717 27.2428C99.3845 27.2428 101.2 27.2401 103.017 27.2347C102.071 24.5241 101.236 21.7812 100.396 19.0382C99.3764 21.7435 98.4983 24.4931 97.5717 27.2428Z" fill="#E6514A"/>
<path d="M117.625 17.6364C117.98 16.5871 118.857 13.9962 120.439 13.7931C120.718 13.762 121.001 13.7951 121.265 13.8899C123.057 14.4684 123.783 16.9476 123.913 17.4131L130.369 33.6352C130.471 34.1857 130.378 34.7546 130.103 35.2433C129.829 35.7321 129.392 36.1099 128.867 36.3113C128.342 36.5127 127.764 36.525 127.231 36.3461C126.698 36.1671 126.245 35.8082 125.95 35.3315L120.925 22.9554L116.602 34.4988C116.258 35.6194 115.387 36.4252 114.367 36.5449C114.173 36.5678 112.977 36.6794 112.326 35.7714C111.735 34.9427 112.084 33.958 112.119 33.8612C114.553 26.5525 116.508 20.9053 117.625 17.6364Z" fill="#E6514A"/>
<path d="M138.11 14.6165C142.085 13.1825 147.048 13.6398 150.168 16.6841C153.863 20.3337 154.127 26.3697 152.238 30.9435C148.995 38.4351 136.703 38.6207 133.038 31.417C130.176 25.7402 131.567 17.0648 138.11 14.6165ZM139.713 19.1714C136.523 21.4879 136.235 26.3011 137.985 29.5835C139.634 32.7676 144.723 33.0232 146.714 30.0718C148.558 27.3289 148.558 23.4936 146.869 20.674C145.468 18.2957 141.968 17.7145 139.713 19.1714Z" fill="#E6514A"/>
<path d="M156.787 14.6931L168.121 14.5586C169.257 14.8922 170.019 15.9038 170 16.9423C169.977 18.227 168.784 19.3826 167.276 19.3315L159.79 19.3449L159.697 34.4115C159.63 35.0016 159.348 35.5467 158.903 35.943C158.459 36.3394 157.885 36.5594 157.288 36.5612C156.692 36.5631 156.116 36.3466 155.669 35.9529C155.222 35.5593 154.937 35.016 154.866 34.4263C154.825 29.2588 154.783 24.0918 154.742 18.9252C154.707 18.7355 154.321 16.3975 155.802 15.207C156.093 14.9718 156.428 14.7971 156.787 14.6931Z" fill="#E6514A"/>
<path d="M25.9771 14.9796C29.8535 14.9796 32.996 11.8502 32.996 7.98981C32.996 4.12944 29.8535 1 25.9771 1C22.1006 1 18.9581 4.12944 18.9581 7.98981C18.9581 11.8502 22.1006 14.9796 25.9771 14.9796Z" stroke="white" stroke-width="0.83" stroke-miterlimit="10"/>
<path d="M29.4433 10.1182C28.5092 10.9214 27.3221 11.3733 26.0882 11.3954C24.8543 11.4175 23.6516 11.0084 22.6891 10.2392" stroke="white" stroke-width="0.83" stroke-miterlimit="10" stroke-linecap="round"/>
<path d="M23.671 6.40902C23.671 6.56257 23.5454 6.6906 23.3861 6.6906C23.2268 6.6906 23.1013 6.56257 23.1013 6.40902C23.1013 6.25547 23.2268 6.12744 23.3861 6.12744C23.5454 6.12744 23.671 6.25547 23.671 6.40902Z" fill="white" stroke="white"/>
<path d="M29.1851 6.40902C29.1851 6.56257 29.0596 6.6906 28.9003 6.6906C28.741 6.6906 28.6154 6.56257 28.6154 6.40902C28.6154 6.25547 28.741 6.12744 28.9003 6.12744C29.0596 6.12744 29.1851 6.25547 29.1851 6.40902Z" fill="white" stroke="white"/>
<path d="M10.6923 18.3131C14.5688 18.3131 17.7113 15.1837 17.7113 11.3233C17.7113 7.46294 14.5688 4.3335 10.6923 4.3335C6.81582 4.3335 3.67332 7.46294 3.67332 11.3233C3.67332 15.1837 6.81582 18.3131 10.6923 18.3131Z" stroke="white" stroke-width="0.83" stroke-miterlimit="10"/>
<path d="M14.1599 13.4526C13.2253 14.2549 12.0382 14.7061 10.8045 14.728C9.57084 14.7498 8.36837 14.341 7.4057 13.5724" stroke="white" stroke-width="0.83" stroke-miterlimit="10" stroke-linecap="round"/>
<path d="M8.38621 9.74252C8.38621 9.89607 8.26064 10.0241 8.10137 10.0241C7.94209 10.0241 7.81653 9.89607 7.81653 9.74252C7.81653 9.58897 7.94209 9.46094 8.10137 9.46094C8.26064 9.46094 8.38621 9.58896 8.38621 9.74252Z" fill="white" stroke="white"/>
<path d="M13.9003 9.74252C13.9003 9.89607 13.7748 10.0241 13.6155 10.0241C13.4562 10.0241 13.3307 9.89607 13.3307 9.74252C13.3307 9.58896 13.4562 9.46094 13.6155 9.46094C13.7748 9.46094 13.9003 9.58896 13.9003 9.74252Z" fill="white" stroke="white"/>
<path d="M35.6707 27.2304C35.6707 21.6907 30.9211 16.973 30.1079 15.9062C29.0273 17.2421 26.9321 17.5205 25.9771 17.5716C25.022 17.5165 22.9269 17.2421 21.8475 15.9062C21.037 16.973 16.2848 21.6907 16.2848 27.2304C16.2848 31.2566 18.6663 35.6367 25.4799 36.0241V36.0551C25.6502 36.0551 25.8136 36.0551 25.9771 36.0457C26.1405 36.0362 26.3053 36.0551 26.4742 36.0551V36.0241C33.2959 35.6367 35.6707 31.2566 35.6707 27.2304Z" fill="white"/>
<path d="M35.6707 27.279C35.6707 25.4549 35.3532 24.3087 34.6332 22.7631C33.1662 19.6166 18.5582 19.9179 17.0912 22.8384C16.2591 24.493 16.2807 25.2746 16.2807 27.2777C16.2807 31.3039 18.6622 35.6827 25.4759 36.0714V36.1024C25.6461 36.1024 25.8095 36.1024 25.973 36.093C26.1364 36.0835 26.3012 36.1024 26.4701 36.1024V36.0714C33.2959 35.684 35.6707 31.3053 35.6707 27.279Z" fill="#3035C4"/>
<path d="M16.3361 28.3079C17.3398 31.5728 19.2445 35.7174 25.4799 36.0726V36.1035C25.6502 36.1035 25.8136 36.1035 25.9771 36.0941C26.1405 36.0847 26.3053 36.1035 26.4742 36.1035V36.0726C32.7069 35.7174 35.5667 31.0172 35.618 28.9025C33.5296 26.3197 21.0195 26.3197 16.3361 28.3079Z" fill="#E6514A"/>
<path opacity="0.33" d="M26.0608 33.6862C21.9137 33.2719 18.85 29.9761 19.2188 26.3265C18.4434 26.1919 18.1179 26.7986 17.7126 26.9305C17.3438 30.5801 20.4143 33.8759 24.5546 34.2902C26.1605 34.4605 27.781 34.1539 29.2123 33.4091C28.1891 33.7002 27.1194 33.7943 26.0608 33.6862Z" fill="white"/>
<path d="M35.6707 27.2304C35.6707 21.6907 30.9211 16.973 30.1079 15.9062C29.0273 17.2421 26.9321 17.5205 25.9771 17.5716C25.022 17.5165 22.9269 17.2421 21.8475 15.9062C21.037 16.973 16.2848 21.6907 16.2848 27.2304C16.2848 31.2566 18.6663 35.6367 25.4799 36.0241V36.0551C25.6502 36.0551 25.8136 36.0551 25.9771 36.0457C26.1405 36.0362 26.3053 36.0551 26.4742 36.0551V36.0241C33.2959 35.6367 35.6707 31.2566 35.6707 27.2304Z" stroke="white" stroke-width="0.83" stroke-linejoin="round"/>
<path d="M20.3859 30.1767C20.3859 24.637 15.6364 19.9193 14.8232 18.8525C13.7425 20.1884 11.6473 20.4668 10.6923 20.5166C9.73724 20.4628 7.64209 20.1884 6.56276 18.8525C5.75226 19.9193 1 24.637 1 30.1767C1 34.2016 3.38153 38.5817 10.1965 38.9691V39C10.3654 39 10.5288 39 10.6923 38.9906C10.8557 38.9812 11.0205 39 11.1894 39V38.9691C18.0044 38.5817 20.3859 34.2016 20.3859 30.1767Z" fill="#E6514A" stroke="white" stroke-width="0.83" stroke-linejoin="round"/>
<path fill-rule="evenodd" clip-rule="evenodd" d="M10.9989 28.3135L11.6217 29.1394L12.6024 28.8058L12.0053 29.6506L12.628 30.4766L11.6365 30.1726L11.0395 31.0174L11.0246 29.9842L10.0331 29.6802L11.0151 29.3466L10.9989 28.3135Z" fill="white"/>
<path d="M10.1141 33.478C9.11743 33.478 8.16156 33.0838 7.45679 32.3819C6.75202 31.6801 6.35608 30.7282 6.35608 29.7356C6.35608 28.7431 6.75202 27.7912 7.45679 27.0893C8.16156 26.3875 9.11743 25.9932 10.1141 25.9932C10.5227 25.9934 10.9284 26.0607 11.315 26.1923C10.6107 25.744 9.79266 25.5049 8.95677 25.5029C8.12087 25.501 7.30173 25.7363 6.59529 26.1813C5.88884 26.6262 5.32435 27.2625 4.96795 28.0154C4.61154 28.7684 4.47797 29.6069 4.58288 30.4327C4.68779 31.2586 5.02685 32.0375 5.56032 32.6784C6.0938 33.3192 6.79961 33.7954 7.59507 34.0512C8.39054 34.307 9.24271 34.3317 10.0518 34.1225C10.8609 33.9133 11.5933 33.4788 12.1634 32.87C11.554 33.2665 10.842 33.4778 10.1141 33.478Z" fill="white"/>
</svg>
